<svg xmlns="http://www.w3.org/2000/svg" viewBox="0 0 80 80" fill="none">
  <circle cx="40" cy="40" r="40" fill="#fef2f2"/>
  <circle cx="40" cy="40" r="38" fill="#fff" stroke="#fca5a5" stroke-width="1"/>
  <!-- Head -->
  <circle cx="40" cy="28" r="14" fill="#fef3c7" stroke="#fcd34d" stroke-width="1"/>
  <!-- Hair (longer) -->
  <path d="M28 22c0-8 24-8 24 0" fill="#1e293b" opacity="0.7"/>
  <path d="M28 22v-3c0-4 24-4 24 3" fill="#1e293b" opacity="0.5"/>
  <!-- Eyes -->
  <circle cx="35" cy="27" r="1.5" fill="#1e293b"/>
  <circle cx="45" cy="27" r="1.5" fill="#1e293b"/>
  <!-- Smile -->
  <path d="M35 32c3 3 7 3 10 0" stroke="#1e293b" stroke-width="1.2" stroke-linecap="round" fill="none"/>
  <!-- Casual shirt -->
  <rect x="22" y="42" width="36" height="22" rx="5" fill="#fef2f2" stroke="#fca5a5" stroke-width="1"/>
  <!-- Collar -->
  <path d="M34 42l6 8 6-8" fill="#fee2e2" stroke="#fca5a5" stroke-width="0.5"/>
  <!-- Heart -->
  <path d="M42 52c-1 3-6 3-7 0-1-2 1-4 3.5-5l0 0c2.5 1 4.5 3 3.5 5z" fill="#ef4444" opacity="0.6"/>
</svg>